<svg width="616" height="751" viewBox="0 0 616 751" fill="none" xmlns="http://www.w3.org/2000/svg">
<g clip-path="url(#clip0_13_179)">
<circle cx="308.125" cy="320.065" r="307.165" fill="black"/>
<path d="M410.135 378.16C409.615 377.847 410.095 377.513 411.575 377.16C413.655 376.35 414.475 376.53 416.015 377.95C416.766 378.641 417.587 379.255 418.465 379.78C430.118 386.693 442.198 392.72 454.705 397.86C461.098 400.487 467.681 402.607 474.455 404.22C476.195 404.64 477.785 404.9 479.225 405C481.695 405.17 485.155 405.03 486.195 406.93C486.314 407.146 486.391 407.383 486.422 407.625C486.452 407.866 486.435 408.107 486.371 408.33C486.308 408.553 486.199 408.753 486.053 408.917C485.907 409.081 485.727 409.205 485.525 409.28C482.895 410.25 478.945 409.15 475.545 408.6C475.458 408.589 475.37 408.606 475.294 408.65C475.218 408.693 475.159 408.76 475.125 408.841C475.091 408.921 475.084 409.011 475.106 409.096C475.127 409.18 475.176 409.256 475.245 409.31C479.851 412.75 484.228 414.517 488.375 414.61C488.888 414.623 489.379 414.834 489.745 415.2L490.325 415.77C490.381 415.828 490.449 415.872 490.525 415.899C490.601 415.926 490.682 415.936 490.762 415.927C490.841 415.919 490.918 415.892 490.987 415.849C491.055 415.806 491.112 415.748 491.155 415.68C492.288 413.887 492.035 411.797 490.395 409.41C484.455 400.737 478.541 393.663 472.655 388.19C469.548 384.943 466.618 381.54 463.865 377.98C463.265 377.2 462.851 376.547 462.625 376.02C462.48 375.668 462.458 375.278 462.563 374.912C462.667 374.546 462.892 374.227 463.201 374.005C463.51 373.783 463.884 373.671 464.264 373.688C464.644 373.706 465.007 373.851 465.295 374.1L470.475 378.66C470.628 378.8 470.792 378.93 470.965 379.05C473.251 380.59 475.631 382.06 478.105 383.46C482.025 385.81 485.295 388.6 489.215 391.14C495.775 395.37 500.925 399.17 507.215 403.42C510.401 405.573 513.568 407.243 516.715 408.43C516.871 408.49 517.04 408.507 517.205 408.479C517.369 408.452 517.524 408.381 517.652 408.274C517.781 408.167 517.878 408.028 517.935 407.871C517.991 407.714 518.005 407.544 517.975 407.38C517.748 406.153 517.418 405.057 516.985 404.09C514.938 399.497 512.491 394.907 509.645 390.32C510.298 389.18 511.175 388.71 512.275 388.91C512.608 388.969 512.92 389.121 513.175 389.35C516.375 392.277 519.798 394.597 523.445 396.31C523.534 396.353 523.634 396.364 523.729 396.341C523.825 396.317 523.909 396.261 523.969 396.182C524.028 396.102 524.06 396.004 524.057 395.904C524.054 395.803 524.018 395.707 523.955 395.63C522.025 393.36 519.255 390.87 517.525 388.68C510.931 380.3 506.085 372.527 502.985 365.36C500.511 359.64 497.591 352.223 494.225 343.11C492.931 339.617 490.435 332.037 486.735 320.37C480.415 300.46 472.165 281.26 461.195 263.78C456.048 255.58 452.175 249.733 449.575 246.24C439.865 233.25 430.805 220.36 420.085 208.93C420.046 208.891 419.995 208.867 419.941 208.863C419.887 208.86 419.835 208.876 419.795 208.91V208.92C419.751 208.954 419.723 209.003 419.716 209.057C419.708 209.111 419.722 209.166 419.755 209.21C441.275 239.2 458.135 269.75 470.585 303.7C471.211 305.413 471.591 307.027 471.725 308.54C471.745 308.773 471.705 308.987 471.605 309.18C471.491 309.387 471.361 309.563 471.215 309.71L470.305 309.99C469.398 309.93 468.725 309.453 468.285 308.56C466.771 305.473 466.001 303.9 465.975 303.84C461.528 292.807 457.275 282.803 453.215 273.83C445.725 257.27 435.065 238.63 423.725 222.09C418.598 214.61 415.265 209.803 413.725 207.67C405.731 196.623 396.485 186.127 385.985 176.18C376.718 167.407 364.891 159.207 350.505 151.58C328.265 139.79 303.315 134.03 278.255 138.79C277.903 138.856 277.56 138.964 277.235 139.11C272.408 141.29 267.848 144.157 263.555 147.71C263.115 146.297 262.635 145.37 262.115 144.93C261.975 144.87 261.941 144.68 262.015 144.36C262.06 144.139 262.184 143.938 262.365 143.79C266.558 140.323 271.251 137.623 276.445 135.69C277.53 135.282 278.502 134.628 279.285 133.78C288.771 123.533 295.548 111.623 299.615 98.0499C300.681 94.4899 301.355 90.6366 301.635 86.4899C302.985 66.3299 300.495 47.4299 289.445 30.3699C284.495 22.7199 278.885 15.9899 270.925 11.9499C261.571 7.1966 251.715 4.30327 241.355 3.26994C227.105 1.84994 208.975 3.27993 195.555 10.2199C191.535 12.2999 186.328 15.4033 179.935 19.5299C179.921 20.0499 179.388 20.3966 178.335 20.5699C171.541 21.6833 163.571 22.9499 154.425 24.3699C151.665 24.7999 149.795 24.7099 146.675 24.8699C146.378 24.883 146.089 24.9545 145.825 25.0799C144.705 25.6133 143.208 25.9566 141.335 26.1099C140.99 26.1365 140.649 26.214 140.325 26.3399C139.858 26.5199 138.985 26.7333 137.705 26.9799C113.151 31.7999 88.3479 36.7566 63.2946 41.8499L55.5846 43.4799L49.3146 44.9499C45.5346 45.3599 43.2946 46.7899 40.1546 47.3999C38.9279 47.1666 38.1979 46.6899 37.9646 45.9699C37.8789 45.7125 37.8485 45.4399 37.8753 45.1695C37.902 44.8992 37.9853 44.637 38.1199 44.3998C38.2545 44.1627 38.4374 43.9557 38.6569 43.7921C38.8764 43.6285 39.1276 43.512 39.3946 43.4499C71.3546 36.0233 103.691 29.8833 136.405 25.0299C138.325 24.7399 140.145 24.9099 141.785 24.8699C142.129 24.8634 142.47 24.7991 142.795 24.6799C151.875 21.4599 161.215 20.3399 173.295 18.3599C173.972 18.247 174.63 18.0556 175.255 17.7899C178.135 16.5566 182.468 14.1166 188.255 10.4699C203.325 0.979934 220.655 -0.950064 238.215 -0.0900638C251.981 0.58327 264.358 4.05993 275.345 10.3399C287.835 17.4799 296.035 31.5099 301.445 45.3899C306.055 57.2199 307.025 70.6399 306.385 83.2599C306.178 87.3866 305.625 91.0333 304.725 94.1999C300.655 108.48 295.625 120.92 285.975 132.38C285.919 132.442 285.883 132.52 285.873 132.604C285.863 132.687 285.878 132.771 285.918 132.845C285.957 132.92 286.018 132.98 286.092 133.018C286.167 133.057 286.251 133.071 286.335 133.06C293.608 132.273 300.848 132.37 308.055 133.35C315.665 134.38 324.045 136.25 331.505 138.86C351.945 146.02 370.078 156.59 385.905 170.57C391.145 175.2 396.045 181.05 401.765 186.45C408.671 192.977 413.751 197.713 417.005 200.66C421.525 204.74 427.625 211.24 430.395 214.73C440.241 227.103 449.478 239.543 458.105 252.05C471.995 272.17 482.385 293.01 489.555 315.1C492.915 325.44 495.895 335.33 499.975 345.95C501.528 349.99 503.281 354.79 505.235 360.35C507.041 365.477 510.105 371.403 514.425 378.13C517.695 383.24 521.685 388.93 525.575 392.24C527.055 393.5 529.921 396.007 534.175 399.76C534.33 399.895 534.435 400.082 534.475 400.29L534.945 402.96C534.987 403.197 534.97 403.441 534.895 403.67C534.82 403.899 534.69 404.106 534.515 404.272C534.341 404.438 534.128 404.559 533.896 404.623C533.664 404.687 533.42 404.693 533.185 404.64C527.971 403.447 523.551 401.463 519.925 398.69C519.853 398.639 519.767 398.613 519.679 398.615C519.591 398.617 519.507 398.647 519.437 398.701C519.368 398.754 519.317 398.829 519.293 398.913C519.27 398.998 519.274 399.088 519.305 399.17C521.105 403.517 522.235 406.673 522.695 408.64C523.095 410.36 523.241 411.633 523.135 412.46C523.097 412.74 522.952 412.995 522.73 413.171C522.508 413.346 522.226 413.428 521.945 413.4C513.945 412.56 508.245 408.48 501.055 403.77C493.681 398.943 486.428 393.94 479.295 388.76C479.235 388.716 479.161 388.697 479.085 388.706C479.009 388.715 478.938 388.752 478.885 388.81L478.875 388.82C478.818 388.886 478.787 388.97 478.789 389.057C478.791 389.144 478.825 389.227 478.885 389.29C483.565 394.177 488.028 399.84 492.275 406.28C493.601 408.293 494.595 410.303 495.255 412.31C497.685 419.75 490.835 420.61 485.745 418.77C476.585 415.45 469.355 410.14 461.535 404.35C461.07 404.005 460.559 403.726 460.015 403.52C443.888 397.367 428.325 389.74 413.325 380.64C413.311 380.627 413.298 380.617 413.285 380.61L410.135 378.16Z" fill="black"/>
<path d="M262.115 144.93C261.841 144.79 261.671 144.75 261.605 144.81C258.598 147.263 257.078 148.503 257.045 148.53C256.777 148.759 256.579 149.057 256.475 149.39C255.735 151.737 255.381 154.203 255.415 156.79C255.417 156.975 255.464 157.157 255.55 157.32C255.636 157.483 255.76 157.624 255.911 157.731C256.063 157.837 256.237 157.906 256.42 157.932C256.603 157.958 256.79 157.94 256.965 157.88C258.151 157.48 258.848 156.67 259.055 155.45C259.261 154.197 259.791 152.987 260.645 151.82C261.738 150.333 262.708 148.963 263.555 147.71C267.848 144.157 272.408 141.29 277.235 139.11C277.56 138.964 277.902 138.856 278.255 138.79C303.315 134.03 328.265 139.79 350.505 151.58C364.891 159.207 376.718 167.407 385.985 176.18C396.485 186.127 405.731 196.623 413.725 207.67C415.265 209.803 418.598 214.61 423.725 222.09C435.065 238.63 445.725 257.27 453.215 273.83C457.275 282.803 461.528 292.807 465.975 303.84C466.001 303.9 466.771 305.473 468.285 308.56C468.725 309.453 469.398 309.93 470.305 309.99C471.498 313.637 472.628 317.303 473.695 320.99C476.275 329.87 477.055 336.48 479.105 347.53C479.136 347.695 479.208 347.849 479.313 347.979C479.419 348.109 479.554 348.211 479.708 348.275C479.862 348.34 480.029 348.365 480.194 348.348C480.359 348.332 480.518 348.274 480.655 348.18C481.155 347.833 481.481 347.193 481.635 346.26C482.215 342.687 482.008 339.193 481.015 335.78C479.781 331.533 478.965 328.62 478.565 327.04C477.671 323.553 476.958 321.18 476.425 319.92C474.705 315.82 473.945 312.75 471.515 310.68C471.348 310.54 471.248 310.4 471.215 310.26C471.175 310.093 471.175 309.91 471.215 309.71C471.361 309.563 471.491 309.387 471.605 309.18C471.705 308.987 471.745 308.773 471.725 308.54C471.591 307.027 471.211 305.413 470.585 303.7C458.135 269.75 441.275 239.2 419.755 209.21C419.722 209.166 419.708 209.111 419.716 209.057C419.723 209.003 419.751 208.954 419.795 208.92V208.91C419.835 208.876 419.887 208.86 419.941 208.863C419.995 208.867 420.046 208.891 420.085 208.93C430.805 220.36 439.865 233.25 449.575 246.24C452.175 249.733 456.048 255.58 461.195 263.78C472.165 281.26 480.415 300.46 486.735 320.37C490.435 332.037 492.931 339.617 494.225 343.11C497.591 352.223 500.511 359.64 502.985 365.36C506.085 372.527 510.931 380.3 517.525 388.68C519.255 390.87 522.025 393.36 523.955 395.63C524.018 395.707 524.054 395.804 524.057 395.904C524.059 396.004 524.028 396.102 523.969 396.182C523.909 396.261 523.825 396.317 523.729 396.341C523.634 396.364 523.533 396.353 523.445 396.31C519.798 394.597 516.375 392.277 513.175 389.35C512.92 389.121 512.608 388.969 512.275 388.91C511.175 388.71 510.298 389.18 509.645 390.32C501.125 387.54 492.305 384.79 483.185 382.07C481.945 381.697 480.251 382.16 478.105 383.46C475.631 382.06 473.251 380.59 470.965 379.05C470.791 378.93 470.628 378.8 470.475 378.66L465.295 374.1C465.007 373.851 464.644 373.706 464.264 373.689C463.884 373.671 463.51 373.783 463.201 374.005C462.892 374.227 462.667 374.547 462.562 374.912C462.458 375.278 462.48 375.668 462.625 376.02C462.851 376.547 463.265 377.2 463.865 377.98C466.618 381.54 469.548 384.943 472.655 388.19C472.735 388.61 472.745 388.883 472.685 389.01C472.636 389.109 472.566 389.195 472.48 389.264C472.394 389.332 472.295 389.381 472.188 389.407C472.081 389.433 471.97 389.435 471.862 389.413C471.754 389.391 471.653 389.346 471.565 389.28L464.365 384.03C464.073 383.811 463.753 383.633 463.415 383.5C460.301 382.293 455.558 380.42 449.185 377.88C444.665 376.08 437.435 371.92 435.895 366.96C434.955 363.96 433.315 363.14 430.985 362.03C417.638 355.677 407.378 350.71 400.205 347.13C392.155 343.11 384.775 338.47 376.305 333.62C370.805 330.48 364.958 326.88 358.765 322.82C342.785 312.353 327.125 300.59 311.785 287.53C302.598 279.717 294.065 271.53 286.185 262.97C282.191 257.997 279.045 253.19 276.745 248.55C270.351 235.623 265.478 221.333 262.125 205.68C261.525 202.9 260.965 197.247 260.445 188.72C260.858 183.88 260.381 179.25 259.015 174.83C258.961 174.653 258.85 174.499 258.699 174.393C258.548 174.286 258.366 174.233 258.18 174.241C257.995 174.249 257.816 174.318 257.672 174.437C257.528 174.556 257.427 174.719 257.385 174.9C255.965 181.073 255.475 187.473 255.915 194.1C256.061 201 257.081 207.837 258.975 214.61C261.168 222.443 263.661 230.183 266.455 237.83C267.201 239.89 268.871 243.31 271.465 248.09C271.098 249.357 270.471 249.773 269.585 249.34C265.231 247.227 260.341 244.723 254.915 241.83C254.709 241.72 254.47 241.69 254.242 241.747C254.015 241.805 253.816 241.945 253.685 242.14C252.015 244.6 250.845 246.42 247.845 246.15C239.895 245.41 231.565 232.18 227.835 225.88C227.732 225.707 227.594 225.557 227.43 225.441C227.265 225.325 227.078 225.245 226.88 225.206C226.681 225.167 226.477 225.171 226.28 225.216C226.082 225.262 225.897 225.348 225.735 225.47C222.015 228.28 217.285 227.57 213.275 225.42C207.601 222.393 202.818 218.89 198.925 214.91C193.565 209.43 188.895 203.22 184.915 196.28C184.535 195.613 182.698 191.593 179.405 184.22C177.585 180.14 175.581 176.19 173.395 172.37C174.445 161.18 176.305 149.85 181.555 139.74C187.015 129.22 193.601 119.873 201.315 111.7C205.841 106.907 211.341 103.587 217.815 101.74C222.888 100.293 228.241 99.5767 233.875 99.59C240.065 99.6 245.955 98.86 248.115 93.39C250.675 86.93 254.255 71.14 244.345 68.49C237.055 66.54 224.215 65.59 214.135 63.71C197.361 60.5767 181.211 57.0433 165.685 53.11C165.051 52.95 163.948 52.76 162.375 52.54L161.375 52.47C160.228 51.0233 159.475 49.6767 159.115 48.43C158.962 47.8959 159.022 47.3234 159.28 46.8304C159.539 46.3374 159.977 45.9615 160.505 45.78C164.171 44.5267 167.631 43.63 170.885 43.09C179.398 41.69 187.971 41.12 196.605 41.38C201.305 41.4267 205.968 41.83 210.595 42.59C213.015 42.98 215.245 43.02 217.555 42.65C217.599 42.6411 217.639 42.6174 217.668 42.5827C217.698 42.548 217.714 42.5044 217.715 42.459C217.716 42.4137 217.702 42.3693 217.675 42.3331C217.647 42.2969 217.609 42.2712 217.565 42.26L206.385 39.8C203.805 37.5667 202.035 34.87 201.075 31.71C201.028 31.5532 201.016 31.3878 201.04 31.2254C201.064 31.063 201.124 30.9076 201.215 30.77C201.608 30.1834 202.078 30.0233 202.625 30.29C202.231 31.4433 202.311 32.4233 202.865 33.23C204.598 35.7633 207.285 36.9833 210.925 36.89C212.176 36.8562 213.383 36.4141 214.361 35.6308C215.339 34.8474 216.036 33.7657 216.345 32.55L216.485 31.99C216.625 31.437 216.639 30.8593 216.524 30.3004C216.409 29.7414 216.169 29.2159 215.821 28.7633C215.473 28.3108 215.028 27.943 214.517 27.6878C214.007 27.4326 213.445 27.2966 212.875 27.29L205.465 27.2L195.225 22.49C194.408 22.1117 193.54 21.846 192.645 21.7L179.935 19.53C186.328 15.4033 191.535 12.3 195.555 10.22C208.975 3.28001 227.105 1.85002 241.355 3.27002C251.715 4.30335 261.571 7.19668 270.925 11.95C278.885 15.99 284.495 22.72 289.445 30.37C300.495 47.43 302.985 66.33 301.635 86.49C301.355 90.6367 300.681 94.49 299.615 98.05C295.548 111.623 288.771 123.533 279.285 133.78C278.502 134.628 277.529 135.282 276.445 135.69C271.251 137.623 266.558 140.323 262.365 143.79C262.184 143.938 262.06 144.139 262.015 144.36C261.941 144.68 261.975 144.87 262.115 144.93Z" fill="white"/>
<path d="M179.935 19.53L192.645 21.7C193.54 21.846 194.408 22.1118 195.225 22.49L205.465 27.2C204.278 27.8534 203.331 28.8834 202.625 30.29C202.078 30.0234 201.608 30.1834 201.215 30.77C201.124 30.9076 201.064 31.0631 201.04 31.2254C201.016 31.3878 201.028 31.5532 201.075 31.71C202.035 34.87 203.805 37.5667 206.385 39.8C197.395 40.03 187.385 39.04 179.625 39.03C162.185 39 144.175 40.29 128.815 40.77C125.415 40.8767 110.768 41.2534 84.8745 41.9C84.7545 41.9067 81.8846 42.1 76.2646 42.48C71.9312 42.7667 67.6079 42.5567 63.2946 41.85C88.3479 36.7567 113.151 31.8 137.705 26.98C138.985 26.7334 139.858 26.52 140.325 26.34C140.649 26.2141 140.99 26.1366 141.335 26.11C143.208 25.9567 144.705 25.6134 145.825 25.08C146.089 24.9546 146.378 24.8831 146.675 24.87C149.795 24.71 151.665 24.8 154.425 24.37C163.571 22.95 171.541 21.6834 178.335 20.57C179.388 20.3967 179.921 20.05 179.935 19.53Z" fill="black"/>
<path d="M202.625 30.2899C203.331 28.8833 204.278 27.8533 205.465 27.2L212.875 27.2899C213.445 27.2965 214.007 27.4325 214.517 27.6877C215.028 27.943 215.473 28.3107 215.821 28.7632C216.169 29.2158 216.409 29.7414 216.524 30.3003C216.639 30.8592 216.625 31.437 216.485 31.99L216.345 32.55C216.036 33.7657 215.339 34.8474 214.361 35.6307C213.383 36.414 212.176 36.8562 210.925 36.89C207.285 36.9833 204.598 35.7633 202.865 33.2299C202.311 32.4233 202.231 31.4433 202.625 30.2899Z" fill="#010101"/>
<path d="M181.889 30.9843C184.541 30.6962 186.644 30.0309 186.586 29.4983C186.528 28.9657 184.332 28.7675 181.68 29.0556C179.028 29.3437 176.925 30.009 176.983 30.5416C177.041 31.0742 179.237 31.2724 181.889 30.9843Z" fill="white"/>
<path d="M206.385 39.8001L217.565 42.2601C217.609 42.2712 217.647 42.297 217.675 42.3331C217.702 42.3693 217.717 42.4137 217.715 42.4591C217.714 42.5044 217.698 42.548 217.668 42.5827C217.639 42.6174 217.599 42.6412 217.555 42.6501C215.245 43.0201 213.015 42.9801 210.595 42.5901C205.968 41.8301 201.305 41.4267 196.605 41.3801C185.565 41.0134 178.551 40.9301 175.565 41.1301C170.005 41.4901 163.415 41.6834 155.795 41.7101C150.101 41.7367 131.695 42.3934 100.575 43.68C90.7346 44.09 79.9046 44.2701 69.8146 44.7501C65.6679 44.9501 60.9246 44.5267 55.5846 43.4801L63.2946 41.8501C67.608 42.5567 71.9313 42.7667 76.2646 42.4801C81.8846 42.1001 84.7546 41.9067 84.8746 41.9001C110.768 41.2534 125.415 40.8767 128.815 40.7701C144.175 40.2901 162.185 39.0001 179.625 39.0301C187.385 39.0401 197.395 40.0301 206.385 39.8001Z" fill="white"/>
<path d="M196.605 41.3801C187.971 41.1201 179.398 41.69 170.885 43.09C167.631 43.63 164.171 44.5267 160.505 45.78C159.977 45.9615 159.539 46.3375 159.28 46.8304C159.022 47.3234 158.962 47.8959 159.115 48.43C159.475 49.6767 160.228 51.0234 161.375 52.47C155.675 51.8 149.955 51.0301 144.305 50.7101C129.465 49.8834 117.268 49.0667 107.715 48.26C100.701 47.6667 92.7579 47.3134 83.8846 47.2C75.9779 47.1 67.5813 46.7134 58.6946 46.04C56.0046 45.83 53.4046 45.97 50.1846 46C49.4046 46.0067 49.1146 45.6567 49.3146 44.95L55.5846 43.48C60.9246 44.5267 65.6679 44.95 69.8146 44.75C79.9046 44.27 90.7346 44.09 100.575 43.68C131.695 42.3934 150.101 41.7367 155.795 41.7101C163.415 41.6834 170.005 41.4901 175.565 41.1301C178.551 40.9301 185.565 41.0134 196.605 41.3801Z" fill="black"/>
<path d="M49.3145 44.95C49.1145 45.6566 49.4045 46.0066 50.1845 46C53.4045 45.97 56.0045 45.8299 58.6945 46.0399C67.5812 46.7133 75.9779 47.1 83.8846 47.2C92.7579 47.3133 100.701 47.6666 107.715 48.2599C117.268 49.0666 129.465 49.8833 144.305 50.71C149.955 51.03 155.675 51.8 161.375 52.47L162.375 52.5399C161.801 52.6999 161.495 52.9499 161.455 53.2899C161.435 53.5099 161.598 53.7499 161.945 54.0099C162.271 54.2566 162.458 54.5 162.505 54.74C143.378 53 130.815 52.0533 124.815 51.8999C102.815 51.3266 80.8179 50.6699 58.8246 49.9299C53.9379 49.7633 49.0612 49.48 44.1945 49.08C42.5879 48.9533 41.2412 48.3933 40.1545 47.3999C43.2945 46.7899 45.5345 45.36 49.3145 44.95Z" fill="black"/>
<path d="M173.395 172.37C171.781 185.957 171.585 198.083 172.805 208.75C175.325 230.857 184.051 250.963 198.985 269.07C199.531 269.737 199.978 270.183 200.325 270.41C200.451 270.497 200.602 270.541 200.755 270.536C200.909 270.531 201.056 270.477 201.177 270.382C201.298 270.287 201.385 270.156 201.426 270.008C201.467 269.86 201.459 269.703 201.405 269.56C200.775 267.82 199.565 264.52 201.395 263.35C201.629 263.2 201.892 263.099 202.166 263.054C202.44 263.008 202.72 263.019 202.988 263.086C203.256 263.152 203.507 263.273 203.725 263.441C203.943 263.609 204.123 263.819 204.255 264.06C209.008 272.92 214.618 281.31 221.085 289.23C229.378 299.39 238.311 308.537 247.885 316.67C250.725 319.077 253.601 320.97 256.515 322.35C256.632 322.404 256.762 322.422 256.89 322.401C257.017 322.381 257.135 322.323 257.23 322.235C257.324 322.147 257.39 322.033 257.419 321.908C257.449 321.782 257.44 321.651 257.395 321.53C256.635 319.59 256.411 317.773 256.725 316.08C256.762 315.884 256.754 315.682 256.702 315.49C256.65 315.297 256.555 315.12 256.425 314.97C252.185 310.103 248.315 304.967 244.815 299.56C243.735 297.88 242.818 296.133 242.065 294.32C241.973 294.1 241.936 293.861 241.957 293.621C241.977 293.38 242.055 293.144 242.183 292.929C242.312 292.713 242.489 292.524 242.702 292.374C242.914 292.224 243.158 292.116 243.415 292.06C245.675 291.56 247.245 294.04 248.205 295.53C260.935 315.31 277.135 334.2 297.375 346.68C299.605 348.05 299.115 350.5 301.035 352.12C301.688 352.68 302.178 353.29 302.505 353.95C302.078 355.377 301.821 356.81 301.735 358.25C300.215 383.717 298.485 409.087 296.545 434.36C295.618 447.06 294.781 459.683 294.035 472.23C293.715 477.53 293.228 484.79 292.575 494.01C287.921 559.43 283.295 626.44 278.695 695.04C277.905 706.74 277.295 716.96 275.885 726.81C275.295 730.97 273.805 733.41 269.865 734.56C258.945 737.753 247.625 739.84 235.905 740.82C222.065 742.22 210.451 742.977 201.065 743.09C193.338 743.183 185.171 743.293 176.565 743.42C174.891 743.44 173.111 743.867 171.225 744.7C171.178 744.722 171.139 744.757 171.112 744.801C171.085 744.845 171.072 744.895 171.074 744.947C171.076 744.998 171.094 745.048 171.124 745.089C171.154 745.131 171.196 745.162 171.245 745.18C173.385 745.98 175.325 746.437 177.065 746.55C183.405 746.97 190.568 746.973 198.555 746.56C214.208 745.76 229.875 744.78 245.555 743.62C258.245 742.85 268.915 741 280.435 739.08C283.581 738.553 286.351 738.357 288.745 738.49C291.845 738.67 294.621 738.92 297.075 739.24C308.361 740.733 316.538 741.857 321.605 742.61C326.258 743.31 330.951 743.12 335.685 742.04C335.79 742.016 335.885 741.957 335.955 741.874C336.025 741.791 336.066 741.687 336.071 741.579C336.077 741.47 336.047 741.363 335.986 741.273C335.926 741.183 335.837 741.115 335.735 741.08C328.768 738.707 321.428 737.077 313.715 736.19C307.175 735.437 299.955 734.75 292.055 734.13C289.868 733.957 287.671 733.37 285.465 732.37C285.22 732.261 285.002 732.102 284.823 731.904C284.644 731.706 284.51 731.474 284.428 731.222C284.347 730.97 284.321 730.705 284.351 730.444C284.381 730.184 284.468 729.933 284.605 729.71C284.871 729.283 285.458 728.93 286.365 728.65L302.555 730.46C315.905 732.19 328.935 733.68 341.425 738.12C342.975 738.67 346.125 740.27 345.135 742.38C343.495 745.83 334.625 747.12 330.555 747.55C327.395 747.883 323.258 747.577 318.145 746.63C316.038 746.243 311.321 745.55 303.995 744.55C295.815 743.43 291.238 742.86 290.265 742.84C284.151 742.707 279.558 742.967 276.485 743.62C268.865 745.227 262.411 746.297 257.125 746.83C248.015 747.74 236.525 748.01 225.385 748.99C214.898 749.923 204.305 750.743 193.605 751.45L174.855 750.41C171.981 749.41 169.175 748.543 166.435 747.81C164.595 747.317 163.051 746.523 161.805 745.43C161.598 745.246 161.437 745.017 161.334 744.76C161.232 744.503 161.19 744.226 161.214 743.95C161.237 743.674 161.324 743.408 161.468 743.172C161.613 742.936 161.81 742.737 162.045 742.59C163.838 741.47 166.015 740.69 168.575 740.25C173.455 739.403 179.621 738.89 187.075 738.71C201.581 738.357 216.888 737.567 232.995 736.34C242.528 735.613 251.395 734.253 259.595 732.26L268.965 730.19C269.599 730.051 270.172 729.709 270.597 729.215C271.023 728.721 271.278 728.102 271.325 727.45L297.265 355.1C297.297 354.638 297.185 354.177 296.945 353.78C295.178 350.853 293.921 349.133 293.175 348.62C282.041 341.02 272.028 332.65 263.135 323.51C263.057 323.428 262.958 323.37 262.849 323.34C262.741 323.311 262.625 323.313 262.516 323.345C262.407 323.377 262.309 323.438 262.231 323.521C262.153 323.605 262.099 323.708 262.075 323.82C261.035 328.51 255.965 325.9 253.185 324.36C249.425 322.287 245.835 319.803 242.415 316.91C231.761 307.89 222.075 297.903 213.355 286.95C211.128 284.15 208.991 280.99 206.945 277.47C206.829 277.274 206.67 277.107 206.479 276.982C206.289 276.857 206.071 276.778 205.845 276.75C202.445 276.343 199.521 275.003 197.075 272.73C185.325 261.81 178.155 247.51 172.955 232.37C170.268 224.557 168.621 216.187 168.015 207.26C167.088 193.46 167.555 180.09 169.415 167.15C170.385 160.39 172.455 152.99 175.255 146.76C177.515 141.72 178.325 137.81 180.725 133.61C187.205 122.317 194.468 113.11 202.515 105.99C204.928 103.857 207.878 102.143 211.365 100.85C218.891 98.0434 224.371 96.5667 227.805 96.4201C233.398 96.1801 236.975 96.0067 238.535 95.9C240.428 95.7667 241.851 95.06 242.805 93.78C245.775 89.82 246.715 81.34 246.145 77.22C245.658 73.7134 243.548 71.6967 239.815 71.1701C213.201 67.4234 187.781 62.34 163.555 55.92C163.015 55.78 162.665 55.3867 162.505 54.7401C162.458 54.5001 162.271 54.2567 161.945 54.01C161.598 53.75 161.435 53.51 161.455 53.29C161.495 52.95 161.801 52.7 162.375 52.54C163.948 52.76 165.051 52.95 165.685 53.11C181.211 57.0434 197.361 60.5767 214.135 63.7101C224.215 65.5901 237.055 66.54 244.345 68.49C254.255 71.14 250.675 86.9301 248.115 93.3901C245.955 98.8601 240.065 99.6 233.875 99.59C228.241 99.5767 222.888 100.293 217.815 101.74C211.341 103.587 205.841 106.907 201.315 111.7C193.601 119.873 187.015 129.22 181.555 139.74C176.305 149.85 174.445 161.18 173.395 172.37Z" fill="white"/>
<path d="M262.115 144.93C262.635 145.37 263.115 146.297 263.555 147.71C262.708 148.963 261.738 150.333 260.645 151.82C259.791 152.987 259.261 154.197 259.055 155.45C258.848 156.67 258.151 157.48 256.965 157.88C256.79 157.94 256.603 157.958 256.42 157.932C256.237 157.906 256.063 157.837 255.911 157.73C255.76 157.624 255.636 157.483 255.55 157.32C255.464 157.156 255.417 156.975 255.415 156.79C255.381 154.203 255.735 151.737 256.475 149.39C256.579 149.057 256.777 148.759 257.045 148.53C257.078 148.503 258.598 147.263 261.605 144.81C261.671 144.75 261.841 144.79 262.115 144.93Z" fill="black"/>
<path d="M254.135 149.37C254.207 149.373 254.278 149.396 254.339 149.436C254.4 149.476 254.45 149.531 254.482 149.596C254.515 149.661 254.529 149.734 254.525 149.807C254.52 149.88 254.496 149.95 254.455 150.01L251.345 154.58C251.271 154.68 251.194 154.77 251.115 154.85C247.961 157.95 245.768 161.99 244.535 166.97C244.395 167.53 244.055 168.027 243.515 168.46C243.379 168.566 243.215 168.632 243.044 168.649C242.872 168.665 242.699 168.633 242.545 168.556C242.391 168.478 242.262 168.358 242.174 168.211C242.085 168.063 242.04 167.892 242.045 167.72C242.305 158.99 246.835 154.64 253.255 149.69C253.541 149.463 253.835 149.357 254.135 149.37Z" fill="black"/>
<path d="M271.465 248.09C273.538 251.99 275.598 255.883 277.645 259.77C280.211 264.657 282.435 268.453 284.315 271.16C287.261 275.4 290.738 280.097 294.745 285.25C297.015 288.16 299.005 291.35 301.215 294.13C313.515 309.63 327.188 323.43 342.235 335.53C345.015 337.763 348.258 340.403 351.965 343.45C356.918 347.517 360.218 350.107 361.865 351.22C365.611 353.747 373.165 358.613 384.525 365.82C385.048 366.151 385.622 366.394 386.225 366.54C388.111 366.987 389.515 367.773 390.435 368.9C390.672 369.19 390.972 369.422 391.315 369.58L400.395 373.71C400.464 373.744 400.522 373.798 400.563 373.864C400.603 373.93 400.624 374.006 400.623 374.083C400.622 374.161 400.599 374.236 400.557 374.301C400.515 374.366 400.455 374.418 400.385 374.45C400.111 374.563 399.681 374.633 399.095 374.66C392.828 373.507 386.788 371.64 380.975 369.06C380.594 368.89 380.177 368.824 379.765 368.87L377.125 369.15C376.901 369.176 376.675 369.149 376.465 369.07C373.351 367.877 369.041 366.443 363.535 364.77C360.501 363.843 357.875 362.607 355.655 361.06C354.535 360.29 352.785 359.8 351.815 360.17C351.556 360.268 351.332 360.435 351.158 360.657C350.985 360.878 350.868 361.149 350.816 361.448C350.763 361.747 350.778 362.066 350.857 362.381C350.937 362.695 351.08 362.996 351.275 363.26C352.901 365.467 353.985 367.387 354.525 369.02C354.576 369.18 354.592 369.348 354.572 369.515C354.551 369.681 354.494 369.84 354.406 369.982C354.317 370.123 354.198 370.243 354.058 370.332C353.918 370.422 353.76 370.479 353.595 370.5C346.315 371.4 333.545 361.81 327.645 356.44C324.735 353.78 320.445 348.14 318.005 352.3C317.924 352.439 317.791 352.542 317.635 352.587C317.479 352.631 317.31 352.615 317.165 352.54L311.425 349.48C311.234 349.381 311.029 349.327 310.825 349.32C309.751 349.3 308.878 349.697 308.205 350.51C307.945 350.83 307.968 351.583 308.275 352.77C308.515 353.717 308.465 354.517 308.125 355.17C306.431 354.343 304.558 353.937 302.505 353.95C302.178 353.29 301.688 352.68 301.035 352.12C299.115 350.5 299.605 348.05 297.375 346.68C277.135 334.2 260.935 315.31 248.205 295.53C247.245 294.04 245.675 291.56 243.415 292.06C243.158 292.116 242.914 292.223 242.702 292.374C242.489 292.524 242.312 292.713 242.183 292.928C242.055 293.144 241.977 293.38 241.957 293.621C241.936 293.861 241.973 294.1 242.065 294.32C242.818 296.133 243.735 297.88 244.815 299.56C248.315 304.967 252.185 310.103 256.425 314.97C256.555 315.12 256.65 315.297 256.702 315.49C256.754 315.682 256.762 315.884 256.725 316.08C256.411 317.773 256.635 319.59 257.395 321.53C257.44 321.651 257.449 321.782 257.419 321.908C257.39 322.033 257.324 322.147 257.23 322.235C257.135 322.323 257.017 322.381 256.89 322.401C256.762 322.422 256.632 322.404 256.515 322.35C253.601 320.97 250.725 319.077 247.885 316.67C238.311 308.537 229.378 299.39 221.085 289.23C214.618 281.31 209.008 272.92 204.255 264.06C204.123 263.819 203.943 263.608 203.725 263.441C203.507 263.273 203.256 263.152 202.988 263.086C202.72 263.019 202.44 263.008 202.166 263.054C201.892 263.099 201.629 263.2 201.395 263.35C199.565 264.52 200.775 267.82 201.405 269.56C201.459 269.703 201.467 269.86 201.426 270.008C201.385 270.156 201.298 270.287 201.177 270.382C201.056 270.477 200.909 270.531 200.755 270.536C200.602 270.541 200.451 270.497 200.325 270.41C199.978 270.183 199.531 269.737 198.985 269.07C184.051 250.963 175.325 230.857 172.805 208.75C171.585 198.083 171.781 185.957 173.395 172.37C175.581 176.19 177.585 180.14 179.405 184.22C182.698 191.593 184.535 195.613 184.915 196.28C188.895 203.22 193.565 209.43 198.925 214.91C202.818 218.89 207.601 222.393 213.275 225.42C217.285 227.57 222.015 228.28 225.735 225.47C225.897 225.348 226.082 225.262 226.28 225.216C226.477 225.171 226.681 225.167 226.88 225.206C227.078 225.245 227.265 225.325 227.43 225.441C227.594 225.557 227.732 225.707 227.835 225.88C231.565 232.18 239.895 245.41 247.845 246.15C250.845 246.42 252.015 244.6 253.685 242.14C253.816 241.945 254.015 241.805 254.242 241.747C254.47 241.69 254.709 241.72 254.915 241.83C260.341 244.723 265.231 247.227 269.585 249.34C270.471 249.773 271.098 249.357 271.465 248.09Z" fill="black"/>
<path d="M260.445 188.72C258.378 189.987 256.868 191.78 255.915 194.1C255.475 187.473 255.965 181.073 257.385 174.9C257.427 174.719 257.528 174.556 257.672 174.437C257.816 174.318 257.995 174.249 258.18 174.241C258.366 174.233 258.548 174.286 258.699 174.393C258.85 174.499 258.961 174.653 259.015 174.83C260.381 179.25 260.858 183.88 260.445 188.72Z" fill="black"/>
<path d="M260.445 188.72C260.965 197.247 261.525 202.9 262.125 205.68C265.478 221.333 270.351 235.623 276.745 248.55C279.045 253.19 282.191 257.997 286.185 262.97C290.958 272.183 294.471 278.217 296.725 281.07C301.691 287.35 307.198 294.177 313.245 301.55C317.225 306.4 320.865 309.6 325.765 314.51C328.331 317.083 331.585 320.083 335.525 323.51C342.638 329.697 347.611 333.987 350.445 336.38C350.478 336.407 351.915 337.48 354.755 339.6C363.215 345.913 371.768 351.973 380.415 357.78C385.355 361.09 390.985 363.56 396.005 367.24C398.565 369.12 401.158 370.923 403.785 372.65C404.063 372.836 404.316 373.061 404.535 373.32C406.415 375.54 408.761 376.82 411.575 377.16C410.095 377.513 409.615 377.847 410.135 378.16L405.765 377.79C404.071 375.897 401.848 374.853 399.095 374.66C399.681 374.633 400.111 374.563 400.385 374.45C400.455 374.418 400.515 374.366 400.557 374.301C400.599 374.236 400.622 374.161 400.623 374.083C400.624 374.006 400.603 373.93 400.563 373.864C400.522 373.798 400.464 373.744 400.395 373.71L391.315 369.58C390.972 369.422 390.672 369.19 390.435 368.9C389.515 367.773 388.111 366.987 386.225 366.54C385.622 366.394 385.048 366.151 384.525 365.82C373.165 358.613 365.611 353.747 361.865 351.22C360.218 350.107 356.918 347.517 351.965 343.45C348.258 340.403 345.015 337.763 342.235 335.53C327.188 323.43 313.515 309.63 301.215 294.13C299.005 291.35 297.015 288.16 294.745 285.25C290.738 280.097 287.261 275.4 284.315 271.16C282.435 268.453 280.211 264.657 277.645 259.77C275.598 255.883 273.538 251.99 271.465 248.09C268.871 243.31 267.201 239.89 266.455 237.83C263.661 230.183 261.168 222.443 258.975 214.61C257.081 207.837 256.061 201 255.915 194.1C256.868 191.78 258.378 189.987 260.445 188.72Z" fill="black"/>
<path d="M472.655 388.19C478.541 393.663 484.455 400.737 490.395 409.41C492.035 411.797 492.288 413.887 491.155 415.68C491.112 415.748 491.055 415.806 490.987 415.849C490.918 415.892 490.841 415.919 490.761 415.927C490.681 415.936 490.601 415.926 490.525 415.899C490.449 415.872 490.381 415.828 490.325 415.77L489.745 415.2C489.379 414.834 488.888 414.623 488.375 414.61C484.228 414.517 479.851 412.75 475.245 409.31C475.176 409.256 475.127 409.18 475.106 409.096C475.084 409.011 475.091 408.921 475.125 408.841C475.159 408.76 475.218 408.693 475.294 408.65C475.37 408.606 475.458 408.589 475.545 408.6C478.945 409.15 482.895 410.25 485.525 409.28C485.727 409.205 485.907 409.081 486.053 408.917C486.199 408.753 486.308 408.553 486.371 408.33C486.435 408.107 486.452 407.867 486.422 407.625C486.391 407.383 486.314 407.146 486.195 406.93C485.155 405.03 481.695 405.17 479.225 405C477.785 404.9 476.195 404.64 474.455 404.22C467.681 402.607 461.098 400.487 454.705 397.86C442.198 392.72 430.118 386.693 418.465 379.78C417.587 379.255 416.766 378.642 416.015 377.95C414.475 376.53 413.655 376.35 411.575 377.16C408.761 376.82 406.415 375.54 404.535 373.32C404.316 373.061 404.063 372.836 403.785 372.65C401.158 370.923 398.565 369.12 396.005 367.24C390.985 363.56 385.355 361.09 380.415 357.78C371.768 351.973 363.215 345.913 354.755 339.6C351.915 337.48 350.478 336.407 350.445 336.38C347.611 333.987 342.638 329.697 335.525 323.51C331.585 320.083 328.331 317.083 325.765 314.51C320.865 309.6 317.225 306.4 313.245 301.55C307.198 294.177 301.691 287.35 296.725 281.07C294.471 278.217 290.958 272.183 286.185 262.97C294.065 271.53 302.598 279.717 311.785 287.53C327.125 300.59 342.785 312.353 358.765 322.82C364.958 326.88 370.805 330.48 376.305 333.62C384.775 338.47 392.155 343.11 400.205 347.13C407.378 350.71 417.638 355.677 430.985 362.03C433.315 363.14 434.955 363.96 435.895 366.96C437.435 371.92 444.665 376.08 449.185 377.88C455.558 380.42 460.301 382.293 463.415 383.5C463.753 383.633 464.073 383.811 464.365 384.03L471.565 389.28C471.653 389.346 471.754 389.391 471.862 389.413C471.97 389.435 472.081 389.433 472.188 389.407C472.295 389.381 472.394 389.332 472.48 389.264C472.566 389.195 472.636 389.109 472.685 389.01C472.745 388.883 472.735 388.61 472.655 388.19Z" fill="white"/>
<path d="M471.215 309.71C471.175 309.91 471.175 310.093 471.215 310.26C471.248 310.4 471.348 310.54 471.515 310.68C473.945 312.75 474.705 315.82 476.425 319.92C476.958 321.18 477.671 323.553 478.565 327.04C478.965 328.62 479.781 331.533 481.015 335.78C482.008 339.193 482.215 342.687 481.635 346.26C481.481 347.193 481.155 347.833 480.655 348.18C480.518 348.274 480.359 348.332 480.194 348.348C480.029 348.365 479.862 348.34 479.708 348.275C479.554 348.211 479.419 348.109 479.313 347.979C479.208 347.849 479.136 347.694 479.105 347.53C477.055 336.48 476.275 329.87 473.695 320.99C472.628 317.303 471.498 313.637 470.305 309.99L471.215 309.71Z" fill="black"/>
<path d="M399.095 374.66C401.848 374.853 404.071 375.897 405.765 377.79C402.945 378.597 399.945 378.613 396.765 377.84C392.265 376.753 387.285 375.317 381.825 373.53C381.305 373.359 380.756 373.315 380.225 373.4C375.895 374.07 371.875 372.59 367.775 370.93C367.697 370.898 367.612 370.893 367.53 370.913C367.449 370.934 367.377 370.981 367.324 371.046C367.272 371.111 367.241 371.191 367.238 371.275C367.234 371.358 367.258 371.441 367.305 371.51C368.565 373.357 369.541 374.883 370.235 376.09C392.145 414.13 405.775 438.35 423.845 467.88C425.571 470.7 426.785 472.963 427.485 474.67C428.338 476.75 429.225 479.167 430.145 481.92C431.695 486.55 428.455 489.45 425.015 493.11C422.368 495.93 418.975 499.483 414.835 503.77C380.815 539.03 346.351 574.893 311.445 611.36C311.317 611.493 311.218 611.651 311.155 611.824C311.092 611.997 311.065 612.181 311.076 612.365C311.087 612.548 311.136 612.727 311.221 612.89C311.305 613.052 311.422 613.196 311.565 613.31C314.611 615.763 317.718 618.497 320.885 621.51C322.511 623.057 325.068 626.287 328.555 631.2C333.268 637.827 335.685 641.21 335.805 641.35C336.645 642.297 337.291 643.293 337.745 644.34C339.755 649.04 335.815 651.56 331.505 650.83C326.131 649.923 321.375 647.49 317.235 643.53C315.735 642.1 314.475 640.69 314.375 638.22C314.225 634.66 313.675 631.86 310.085 630.11C309.953 630.046 309.809 630.013 309.662 630.012C309.516 630.011 309.372 630.043 309.239 630.105C309.107 630.167 308.99 630.259 308.898 630.372C308.805 630.485 308.739 630.618 308.705 630.76C307.058 637.38 305.805 642.667 304.945 646.62C303.235 654.53 305.215 658.9 307.015 670.09C308.288 677.983 307.785 686.023 305.505 694.21C304.805 696.73 301.065 708.12 297.305 702.91C297.262 702.847 297.202 702.798 297.131 702.77C297.061 702.741 296.983 702.735 296.909 702.751C296.834 702.767 296.767 702.805 296.714 702.86C296.662 702.916 296.627 702.985 296.615 703.06C295.545 708.67 292.625 716.57 287.535 720.06C287.41 720.148 287.311 720.267 287.248 720.406C287.184 720.545 287.159 720.698 287.175 720.85C287.375 722.77 287.895 725.81 286.145 726.76C281.335 726.82 282.275 723.46 282.495 719.55C282.995 710.383 283.368 704.283 283.615 701.25C284.735 687.33 287.131 653.247 290.805 599C292.465 574.447 296.335 520.11 302.415 435.99L308.125 355.17C308.465 354.517 308.515 353.717 308.275 352.77C307.968 351.583 307.945 350.83 308.205 350.51C308.878 349.697 309.751 349.3 310.825 349.32C311.029 349.327 311.234 349.381 311.425 349.48L317.165 352.54C317.31 352.615 317.479 352.631 317.635 352.587C317.791 352.542 317.924 352.439 318.005 352.3C320.445 348.14 324.735 353.78 327.645 356.44C333.545 361.81 346.315 371.4 353.595 370.5C353.76 370.479 353.918 370.422 354.058 370.332C354.198 370.243 354.317 370.123 354.406 369.982C354.494 369.84 354.551 369.681 354.572 369.515C354.592 369.348 354.576 369.18 354.525 369.02C353.985 367.387 352.901 365.467 351.275 363.26C351.08 362.996 350.937 362.695 350.857 362.381C350.778 362.066 350.763 361.747 350.816 361.448C350.868 361.149 350.985 360.879 351.158 360.657C351.332 360.435 351.556 360.268 351.815 360.17C352.785 359.8 354.535 360.29 355.655 361.06C357.875 362.607 360.501 363.843 363.535 364.77C369.041 366.443 373.351 367.877 376.465 369.07C376.675 369.149 376.901 369.176 377.125 369.15L379.765 368.87C380.177 368.824 380.594 368.89 380.975 369.06C386.788 371.64 392.828 373.507 399.095 374.66Z" fill="black"/>
<path d="M387.155 525.04L381.555 522.74" stroke="#E7C5AB" stroke-width="2"/>
<path d="M308.125 355.17L302.415 435.99C300.508 434.97 298.551 434.427 296.545 434.36C298.485 409.087 300.215 383.717 301.735 358.25C301.821 356.81 302.078 355.377 302.505 353.95C304.558 353.937 306.431 354.343 308.125 355.17Z" fill="black"/>
<path d="M387.155 525.04L381.555 522.74C386.745 517.38 391.525 512.17 397.025 506.55C404.371 499.043 408.911 494.137 410.645 491.83C411.955 490.08 413.785 487.8 413.955 485.45C413.981 485.092 413.901 484.733 413.725 484.42L412.615 482.46C412.423 482.123 412.291 481.754 412.225 481.37L411.055 474.84C410.803 473.404 410.306 472.021 409.585 470.75L356.185 376.19C356.14 376.114 356.113 376.03 356.106 375.942C356.098 375.855 356.11 375.767 356.14 375.684C356.171 375.601 356.219 375.525 356.282 375.462C356.345 375.4 356.421 375.351 356.505 375.32C360.035 374.04 359.695 371.29 359.885 368.23C359.891 368.161 359.919 368.096 359.965 368.044C360.011 367.992 360.072 367.956 360.139 367.94C360.207 367.925 360.277 367.931 360.341 367.958C360.405 367.985 360.458 368.031 360.495 368.09C380.555 403.57 400.228 437.557 419.515 470.05C420.575 471.84 422.715 473.99 423.595 476.01C424.808 478.797 425.548 481.387 425.815 483.78C425.877 484.339 425.815 484.905 425.631 485.436C425.448 485.967 425.148 486.45 424.755 486.85L387.155 525.04Z" fill="white"/>
<path d="M509.645 390.32C512.491 394.907 514.938 399.497 516.984 404.09C517.418 405.057 517.748 406.153 517.974 407.38C518.005 407.544 517.991 407.714 517.935 407.871C517.878 408.028 517.781 408.167 517.652 408.274C517.524 408.381 517.369 408.452 517.204 408.479C517.04 408.507 516.871 408.49 516.715 408.43C513.568 407.243 510.401 405.573 507.215 403.42C500.925 399.17 495.775 395.37 489.215 391.14C485.295 388.6 482.024 385.81 478.104 383.46C480.251 382.16 481.945 381.697 483.185 382.07C492.305 384.79 501.125 387.54 509.645 390.32Z" fill="white"/>
<path d="M302.415 435.99C296.335 520.11 292.465 574.447 290.805 599C287.131 653.247 284.735 687.33 283.615 701.25C283.368 704.283 282.995 710.383 282.495 719.55C282.275 723.46 281.335 726.82 286.145 726.76C285.985 727.5 286.058 728.13 286.365 728.65C285.458 728.93 284.871 729.283 284.605 729.71C284.468 729.933 284.381 730.183 284.351 730.444C284.32 730.705 284.347 730.97 284.428 731.222C284.51 731.473 284.644 731.706 284.823 731.904C285.002 732.102 285.22 732.261 285.465 732.37C287.671 733.37 289.868 733.957 292.055 734.13C299.955 734.75 307.175 735.437 313.715 736.19C321.428 737.077 328.768 738.707 335.735 741.08C335.837 741.115 335.926 741.183 335.986 741.273C336.047 741.363 336.077 741.47 336.071 741.579C336.066 741.687 336.025 741.791 335.955 741.874C335.885 741.957 335.79 742.016 335.685 742.04C330.951 743.12 326.258 743.31 321.605 742.61C316.538 741.857 308.361 740.733 297.075 739.24C294.621 738.92 291.845 738.67 288.745 738.49C286.351 738.357 283.581 738.553 280.435 739.08C268.915 741 258.245 742.85 245.555 743.62C242.101 743.253 238.885 742.32 235.905 740.82C247.625 739.84 258.945 737.753 269.865 734.56C273.805 733.41 275.295 730.97 275.885 726.81C277.295 716.96 277.905 706.74 278.695 695.04C283.295 626.44 287.921 559.43 292.575 494.01C293.228 484.79 293.715 477.53 294.035 472.23C294.781 459.683 295.618 447.06 296.545 434.36C298.551 434.427 300.508 434.97 302.415 435.99Z" fill="black"/>
<path d="M381.555 522.74L387.155 525.04C370.075 542.6 353.055 560.21 336.095 577.87C327.315 587.02 317.525 598.25 308.005 607.44C304.945 610.39 303.755 612.97 307.415 615.95C313.021 620.523 317.091 624.27 319.625 627.19C320.851 628.603 322.398 630.76 324.265 633.66C327.345 638.47 328.875 640.27 332.075 644.68C332.166 644.805 332.219 644.955 332.225 645.11C332.231 645.265 332.191 645.419 332.109 645.551C332.027 645.683 331.908 645.788 331.767 645.852C331.625 645.916 331.468 645.936 331.315 645.91C328.328 645.43 325.441 644.153 322.655 642.08C320.455 640.44 319.431 637.85 319.585 634.31C319.598 633.996 319.529 633.685 319.385 633.41C316.498 627.823 311.938 625 305.705 624.94C305.401 624.938 305.107 625.04 304.87 625.229C304.633 625.419 304.469 625.684 304.405 625.98C302.871 632.993 301.495 639.633 300.275 645.9C299.455 650.107 298.738 656.223 298.125 664.25C297.858 667.757 296.311 678.917 293.485 697.73C292.755 702.61 291.695 705.07 289.705 710.63C289.345 711.623 288.935 712.347 288.475 712.8C288.418 712.86 288.344 712.9 288.262 712.916C288.181 712.931 288.097 712.92 288.023 712.884C287.948 712.849 287.887 712.79 287.848 712.718C287.809 712.645 287.793 712.562 287.805 712.48C288.445 706.31 288.495 700.45 289.025 695.35C290.855 677.86 291.585 659.87 292.945 644C293.498 637.533 294.175 628.533 294.975 617C295.315 612.16 299.765 606.98 303.285 603.47C323.005 583.783 335.261 571.373 340.055 566.24C343.335 562.72 348.021 557.74 354.115 551.3C363.195 541.713 372.341 532.193 381.555 522.74Z" fill="white"/>
<path d="M302.554 680.925C302.763 675.942 302.561 671.887 302.103 671.868C301.645 671.849 301.104 675.872 300.895 680.855C300.686 685.838 300.888 689.893 301.346 689.912C301.804 689.931 302.345 685.908 302.554 680.925Z" fill="#F9E9BD"/>
<path d="M235.905 740.82C238.885 742.32 242.101 743.253 245.555 743.62C229.875 744.78 214.208 745.76 198.555 746.56C190.568 746.973 183.405 746.97 177.065 746.55C175.325 746.437 173.385 745.98 171.245 745.18C171.196 745.162 171.154 745.131 171.124 745.089C171.094 745.048 171.076 744.998 171.074 744.947C171.072 744.895 171.085 744.844 171.112 744.801C171.139 744.757 171.178 744.722 171.225 744.7C173.111 743.867 174.891 743.44 176.565 743.42C185.171 743.293 193.338 743.183 201.065 743.09C210.451 742.977 222.065 742.22 235.905 740.82Z" fill="black"/>
</g>
<defs>
<clipPath id="clip0_13_179">
<rect width="615" height="751" fill="white" transform="translate(0.362915)"/>
</clipPath>
</defs>
</svg>
